<svg xmlns="http://www.w3.org/2000/svg" width="600" height="600" viewBox="0 0 600 600" version="1.1"><path d="M 492 273.871 C 492 274.350, 488.860 275.051, 485.023 275.429 C 481.186 275.807, 477.784 276.540, 477.464 277.058 C 477.144 277.576, 475.784 278, 474.441 278 C 473.098 278, 472 278.344, 472 278.763 C 472 279.183, 469.637 280.084, 466.750 280.766 C 463.863 281.448, 461.050 282.608, 460.500 283.345 C 459.950 284.082, 457.781 285.251, 455.680 285.943 C 453.579 286.635, 451.618 287.831, 451.323 288.601 C 451.028 289.370, 449.961 290, 448.952 290 C 447.943 290, 446.840 290.450, 446.500 291 C 446.160 291.550, 445.009 292, 443.941 292 C 442.868 292, 442 292.682, 442 293.525 C 442 294.418, 440.762 295.298, 439.014 295.647 C 437.372 295.976, 434.874 297.314, 433.463 298.622 C 432.052 299.930, 430.536 301, 430.095 301 C 429.653 301, 428.078 302.125, 426.595 303.500 C 425.111 304.875, 423.503 306, 423.021 306 C 422.539 306, 421.268 307.115, 420.196 308.478 C 419.124 309.841, 417.067 311.404, 415.624 311.953 C 414.181 312.502, 413 313.538, 413 314.256 C 413 314.974, 411.650 316.071, 410 316.694 C 408.350 317.317, 407 318.540, 407 319.413 C 407 320.286, 406.338 321, 405.530 321 C 404.721 321, 403.062 322.350, 401.842 324 C 400.622 325.650, 399.085 327, 398.427 327 C 397.769 327, 396.515 328.091, 395.642 329.424 C 394.768 330.757, 393.210 332.116, 392.178 332.443 C 391.147 332.771, 389.795 334.155, 389.173 335.519 C 388.552 336.884, 387.535 338, 386.915 338 C 386.295 338, 384.903 339.125, 383.821 340.500 C 382.740 341.875, 381.325 343.012, 380.677 343.028 C 380.030 343.043, 378.375 344.605, 377 346.500 C 375.625 348.395, 373.953 349.957, 373.285 349.972 C 372.617 349.988, 371.592 350.895, 371.006 351.988 C 369.423 354.947, 362.483 362, 361.155 362 C 360.520 362, 360 362.450, 360 363 C 360 363.550, 359.100 364.900, 358 366 C 356.900 367.100, 356 368.675, 356 369.500 C 356 370.325, 355.335 371, 354.523 371 C 353.711 371, 352.340 372.078, 351.476 373.396 C 350.613 374.713, 349.028 376.021, 347.953 376.302 C 346.874 376.584, 346 377.669, 346 378.727 C 346 379.779, 344.470 381.860, 342.601 383.351 C 340.731 384.841, 338.950 387.060, 338.643 388.280 C 338.335 389.501, 337.052 390.950, 335.792 391.500 C 334.531 392.050, 332.894 393.874, 332.154 395.554 C 331.413 397.234, 329.838 399.034, 328.654 399.554 C 327.469 400.074, 325.856 401.962, 325.070 403.750 C 324.283 405.538, 323.158 407.003, 322.570 407.006 C 321.981 407.010, 320.733 408.360, 319.797 410.006 C 318.860 411.653, 317.432 413, 316.624 413 C 315.816 413, 314.657 414.509, 314.049 416.353 C 313.414 418.276, 311.880 420.189, 310.451 420.840 C 309.081 421.465, 307.530 423.106, 307.005 424.488 C 306.479 425.869, 305.607 427, 305.067 427 C 304.526 427, 302.898 429.025, 301.447 431.500 C 299.997 433.975, 298.178 436, 297.405 436 C 296.632 436, 296 436.888, 296 437.974 C 296 439.122, 294.836 440.551, 293.222 441.385 C 291.666 442.190, 289.825 444.398, 289.039 446.402 C 288.266 448.371, 286.791 450.249, 285.760 450.576 C 284.729 450.903, 283.456 452.301, 282.931 453.682 C 282.406 455.063, 281.081 456.427, 279.988 456.713 C 278.877 457.004, 278 458.078, 278 459.148 C 278 460.201, 277.342 461.315, 276.538 461.624 C 275.734 461.932, 274.804 463.043, 274.471 464.092 C 274.138 465.142, 273.209 466, 272.408 466 C 271.606 466, 270.527 467.012, 270.009 468.250 C 268.700 471.381, 266.491 474, 265.159 474 C 264.542 474, 263.760 475.109, 263.420 476.464 C 263.079 477.819, 261.986 479.187, 260.989 479.503 C 259.125 480.095, 254 486.158, 254 487.773 C 254 488.271, 252.875 489.192, 251.500 489.818 C 250.125 490.445, 249 491.589, 249 492.362 C 249 493.135, 248.105 494.001, 247.012 494.287 C 245.919 494.573, 244.563 496.019, 244 497.500 C 243.437 498.981, 242.081 500.427, 240.988 500.713 C 239.895 500.999, 239 501.844, 239 502.591 C 239 503.338, 237.650 504.647, 236 505.500 C 234.350 506.353, 232.999 507.377, 232.999 507.776 C 232.997 509.061, 220.204 520.986, 218.817 520.995 C 218.442 520.998, 217.866 521.846, 217.538 522.881 C 217.196 523.959, 215.633 525.023, 213.879 525.374 C 212.009 525.748, 210.618 526.746, 210.306 527.936 C 210.014 529.055, 208.597 530.149, 206.983 530.504 C 205.436 530.844, 202.935 532.183, 201.426 533.479 C 199.917 534.776, 197.178 536.119, 195.341 536.464 C 193.503 536.809, 192 537.520, 192 538.045 C 192 538.570, 191.213 539.007, 190.250 539.015 C 189.287 539.023, 186.856 539.603, 184.847 540.303 L 181.195 541.575 184.178 543.288 C 187.575 545.237, 199.906 545.694, 201.665 543.935 C 202.250 543.350, 206.029 542.188, 210.061 541.353 C 214.094 540.519, 218.443 539.010, 219.726 538.001 C 221.009 536.992, 223.846 535.864, 226.029 535.495 C 228.213 535.126, 230 534.391, 230 533.861 C 230 533.331, 231.688 532.195, 233.750 531.337 C 235.813 530.478, 237.725 529.452, 238 529.057 C 238.275 528.662, 240.722 527.250, 243.438 525.919 C 246.154 524.589, 249.396 522.487, 250.642 521.250 C 251.889 520.013, 253.427 519, 254.061 519 C 254.694 519, 256.097 517.875, 257.179 516.500 C 258.260 515.125, 259.679 514, 260.332 514 C 260.985 514, 262.081 513.100, 262.768 512 C 263.455 510.900, 264.604 510, 265.320 510 C 266.037 510, 267.622 508.650, 268.842 507 C 270.062 505.350, 271.609 503.988, 272.280 503.972 C 272.951 503.957, 274.625 502.395, 276 500.500 C 277.375 498.605, 278.972 497.043, 279.549 497.028 C 280.126 497.012, 284.176 493.181, 288.549 488.513 C 292.922 483.846, 297.063 480.021, 297.750 480.013 C 298.438 480.006, 299 479.325, 299 478.500 C 299 477.675, 299.460 477, 300.021 477 C 300.583 477, 301.555 475.875, 302.182 474.500 C 302.808 473.125, 303.827 472, 304.445 472 C 305.063 472, 306.366 470.650, 307.341 469 C 308.316 467.350, 309.774 466, 310.581 466 C 311.389 466, 312.435 464.987, 312.905 463.749 C 313.376 462.512, 316.444 458.799, 319.723 455.499 C 323.003 452.200, 326.222 448.488, 326.878 447.250 C 327.534 446.012, 328.730 445, 329.535 445 C 330.341 445, 331 444.405, 331 443.677 C 331 442.949, 333.250 439.945, 336 437 C 338.750 434.055, 341 431.276, 341 430.823 C 341 430.370, 341.645 430, 342.433 430 C 343.221 430, 344.147 429.113, 344.491 428.029 C 344.835 426.944, 349.172 421.882, 354.129 416.779 C 359.086 411.675, 365.472 405.025, 368.321 402 C 371.169 398.975, 374.287 396.177, 375.250 395.782 C 376.212 395.387, 377 394.391, 377 393.567 C 377 392.744, 378.004 391.533, 379.231 390.876 C 380.458 390.220, 382.291 388.629, 383.304 387.341 C 384.316 386.054, 385.787 385, 386.573 385 C 387.358 385, 388.004 384.438, 388.010 383.750 C 388.015 383.063, 389.882 380.925, 392.158 379 C 394.434 377.075, 398.252 373.587, 400.642 371.250 C 403.033 368.913, 405.431 367, 405.971 367 C 406.512 367, 407.691 365.875, 408.592 364.500 C 409.493 363.125, 410.772 362, 411.435 362 C 412.097 362, 413.618 360.875, 414.813 359.500 C 416.009 358.125, 417.661 357, 418.485 357 C 419.309 357, 420.545 356.100, 421.232 355 C 421.919 353.900, 423.010 353, 423.656 353 C 424.302 353, 426.105 351.650, 427.662 350 C 429.219 348.350, 431.257 347, 432.190 347 C 433.123 347, 434.475 346.190, 435.193 345.200 C 435.912 344.210, 438.075 342.781, 440 342.026 C 441.925 341.271, 444.268 339.871, 445.206 338.915 C 446.144 337.960, 448.388 336.854, 450.192 336.458 C 451.996 336.062, 453.928 335.151, 454.486 334.435 C 456.574 331.754, 479.378 329.685, 482.816 331.865 C 486.880 334.442, 487.998 343.042, 485.939 355.885 C 483.419 371.605, 481.694 380.534, 481.087 381 C 480.371 381.549, 478.434 389.211, 477.421 395.500 C 477.067 397.700, 476.265 399.950, 475.638 400.500 C 474.485 401.513, 469.997 421.608, 469.999 425.750 C 469.999 426.988, 469.408 428, 468.685 428 C 467.830 428, 466.946 430.537, 466.160 435.250 C 465.495 439.238, 464.679 444.075, 464.347 446 C 464.014 447.925, 463.265 449.804, 462.683 450.175 C 461.679 450.815, 458.767 465.374, 457.366 476.750 C 457.011 479.637, 456.373 482, 455.948 482 C 454.918 482, 453.894 488.344, 452.962 500.500 L 452.195 510.500 452.348 500.249 C 452.460 492.696, 452.175 489.998, 451.264 489.999 C 448.068 490.002, 441 492.555, 441 493.707 C 441 494.418, 440.212 495.014, 439.250 495.032 C 437.105 495.071, 434.582 496.949, 433.773 499.110 C 433.384 500.150, 431.408 500.954, 428.188 501.381 C 423.978 501.939, 423.110 502.426, 422.584 504.521 C 422.096 506.466, 421.320 507, 418.981 507 C 417.341 507, 416 507.460, 416 508.021 C 416 508.583, 414.875 509.555, 413.500 510.182 C 412.125 510.808, 411 511.924, 411 512.661 C 411 513.397, 410.325 514, 409.500 514 C 408.675 514, 408 514.450, 408 515 C 408 515.550, 406.636 516, 404.969 516 C 403.197 516, 401.698 516.623, 401.362 517.500 C 401.045 518.325, 400.159 519, 399.393 519 C 398.627 519, 398 519.414, 398 519.921 C 398 520.427, 396.538 521.162, 394.750 521.555 C 392.963 521.947, 390.912 523.108, 390.193 524.134 C 389.475 525.160, 388.237 526, 387.443 526 C 386.649 526, 386 526.450, 386 527 C 386 527.550, 385.325 528, 384.500 528 C 383.675 528, 383 528.450, 383 529 C 383 529.550, 381.930 530, 380.622 530 C 379.315 530, 377.685 530.675, 377 531.500 C 376.315 532.325, 375.018 533, 374.118 533 C 373.218 533, 371.919 533.900, 371.232 535 C 370.545 536.100, 369.073 537, 367.960 537 C 366.848 537, 365.678 537.675, 365.362 538.500 C 365.045 539.325, 364.047 540.019, 363.143 540.042 C 362.239 540.066, 360.396 541.416, 359.047 543.042 C 357.698 544.669, 355.789 546, 354.805 546 C 353.822 546, 352.455 546.900, 351.768 548 C 351.081 549.100, 349.963 550, 349.283 550 C 348.602 550, 347.309 551.125, 346.408 552.500 C 345.507 553.875, 343.948 555, 342.944 555 C 341.940 555, 340.840 555.450, 340.500 556 C 340.160 556.550, 339.009 557, 337.941 557 C 336.873 557, 336 557.513, 336 558.140 C 336 559.677, 332.911 561.929, 330.750 561.968 C 329.788 561.986, 329 562.564, 329 563.253 C 329 565.232, 323.860 569.563, 319.750 571.047 C 317.688 571.792, 316 572.966, 316 573.656 C 316 575.362, 312.309 575.802, 292.583 576.447 C 283.279 576.752, 275.471 577.196, 275.233 577.434 C 272.935 579.732, 280.078 580, 343.559 580 C 402.840 580, 411 579.819, 411 578.500 C 411 577.428, 412.093 577, 414.833 577 C 420.892 577, 430 574.872, 430 573.456 C 430 572.688, 432.023 571.910, 435.123 571.483 C 438.947 570.957, 440.370 570.300, 440.739 568.889 C 441.011 567.850, 442.060 567, 443.070 567 C 445.951 567, 450 564.822, 450 563.272 C 450 562.320, 450.647 562.071, 452 562.500 C 453.108 562.852, 454 562.680, 454 562.114 C 454 561.553, 455.540 560.363, 457.423 559.470 C 459.305 558.576, 461.091 557.205, 461.391 556.423 C 461.692 555.640, 462.596 555, 463.401 555 C 464.206 555, 465.151 554.101, 465.499 553.002 C 465.848 551.904, 467.208 550.735, 468.521 550.405 C 470.100 550.009, 471.289 548.653, 472.032 546.403 C 472.763 544.188, 473.968 542.795, 475.482 542.415 C 477.158 541.995, 477.989 540.875, 478.450 538.416 C 479.032 535.311, 479.405 535, 482.545 535 C 484.445 535, 486 534.608, 486 534.128 C 486 533.648, 487.800 532.968, 490 532.616 L 494 531.976 494 509.095 C 494 489.679, 493.773 486.127, 492.500 485.638 C 490.849 485.005, 490.318 476.539, 491.869 475.581 C 492.347 475.285, 493.053 471.020, 493.438 466.102 C 493.911 460.059, 494.573 456.994, 495.482 456.645 C 496.309 456.328, 497.098 453.595, 497.531 449.551 C 497.919 445.933, 498.633 442.727, 499.118 442.427 C 499.603 442.127, 500 440.784, 500 439.441 C 500 438.098, 500.450 437, 501 437 C 501.550 437, 502 435.650, 502 434 C 502 432.350, 502.392 431, 502.871 431 C 503.350 431, 504.051 427.860, 504.429 424.023 C 504.807 420.186, 505.540 416.784, 506.058 416.464 C 506.576 416.144, 507 414.559, 507 412.941 C 507 411.323, 507.450 410, 508 410 C 508.550 410, 509 408.452, 509 406.559 C 509 404.666, 509.404 402.868, 509.898 402.563 C 510.392 402.258, 511.110 398.888, 511.492 395.075 C 511.915 390.869, 512.699 387.946, 513.486 387.644 C 514.284 387.338, 515.059 384.332, 515.502 379.823 C 515.898 375.795, 516.572 372.050, 517 371.500 C 517.428 370.950, 518.099 367.238, 518.490 363.250 C 518.971 358.358, 519.623 356, 520.495 356 C 521.403 356, 522 353.322, 522.501 346.993 C 522.893 342.039, 523.615 337.738, 524.107 337.434 C 524.598 337.130, 525 335.109, 525 332.941 C 525 330.773, 525.450 329, 526 329 C 526.550 329, 527 326.788, 527 324.083 C 527 321.379, 527.494 319.002, 528.097 318.801 C 528.819 318.560, 529.247 313.315, 529.347 303.468 C 529.512 287.304, 529.239 286.204, 523.701 280.750 C 522.166 279.238, 520.480 278, 519.955 278 C 519.430 278, 519 277.555, 519 277.012 C 519 276.468, 517.200 275.736, 515 275.384 C 512.800 275.032, 511 274.352, 511 273.872 C 511 273.392, 506.725 273, 501.500 273 C 496.275 273, 492 273.392, 492 273.871" stroke="none" fill="#ecb9c8" fill-rule="evenodd"/><path d="M 331.500 18.724 C 328.750 18.923, 326.050 19.662, 325.500 20.365 C 324.950 21.068, 320.917 22.142, 316.538 22.751 C 312.159 23.360, 308.109 24.475, 307.538 25.228 C 306.967 25.981, 303.913 27.210, 300.750 27.959 C 297.287 28.778, 295 29.853, 295 30.660 C 295 31.429, 293.916 32, 292.455 32 C 291.055 32, 288.784 33.125, 287.409 34.500 C 286.034 35.875, 284.281 37, 283.514 37 C 282.746 37, 281.840 37.450, 281.500 38 C 281.160 38.550, 280.186 39, 279.335 39 C 278.484 39, 276.903 40.125, 275.821 41.500 C 274.740 42.875, 273.213 44, 272.427 44 C 271.642 44, 271 44.445, 271 44.988 C 271 45.531, 269.143 47.669, 266.872 49.738 C 256.243 59.426, 249 67.498, 249 69.657 C 249 70.396, 248.325 71, 247.500 71 C 246.675 71, 246 71.689, 246 72.531 C 246 73.374, 245.369 74.305, 244.598 74.601 C 243.827 74.896, 242.907 76.682, 242.553 78.569 C 242.190 80.502, 241.309 82, 240.534 82 C 239.778 82, 238.841 83.448, 238.452 85.217 C 237.709 88.601, 236.266 91.583, 234.359 93.674 C 233.108 95.046, 231 105.811, 231 110.832 C 231 112.574, 230.550 114, 230 114 C 229.431 114, 229 116.953, 229 120.858 L 229 127.716 188.297 128.216 C 159.070 128.575, 147.487 129.038, 147.214 129.858 C 147.005 130.486, 145.798 131, 144.532 131 C 141.946 131, 131.772 134.047, 131 135.053 C 130.725 135.411, 128.715 136.543, 126.533 137.569 C 124.351 138.595, 120.864 141.136, 118.783 143.217 C 116.702 145.298, 114.560 147, 114.023 147 C 113.486 147, 112.309 148.125, 111.408 149.500 C 110.507 150.875, 109.147 152, 108.385 152 C 107.623 152, 107 152.845, 107 153.878 C 107 154.910, 106.321 156.319, 105.491 157.007 C 104.661 157.696, 103.704 160.001, 103.363 162.130 C 103.015 164.308, 102.179 166, 101.452 166 C 100.592 166, 99.925 168.260, 99.458 172.750 C 99.073 176.463, 98.412 179.950, 97.990 180.500 C 97.568 181.050, 96.893 184.399, 96.491 187.942 C 96.088 191.485, 95.204 194.939, 94.526 195.617 C 93.848 196.295, 92.992 199.471, 92.624 202.675 C 91.722 210.520, 89.722 219, 88.773 219 C 88.348 219, 88 220.710, 88 222.800 C 88 224.890, 87.596 227.028, 87.102 227.550 C 86.609 228.072, 86.034 230.412, 85.826 232.750 C 85.463 236.820, 85.564 237, 88.224 237 C 89.937 237, 91 236.464, 91 235.600 C 91 234.746, 92.952 233.731, 96 233 C 98.913 232.301, 101 231.242, 101 230.462 C 101 229.629, 102.796 228.859, 105.750 228.425 C 111.258 227.616, 115.212 226.274, 116.041 224.934 C 117.644 222.339, 150.297 221.018, 161.566 223.092 C 164.830 223.692, 167.860 224.817, 168.300 225.592 C 168.740 226.366, 169.731 227, 170.503 227 C 172.964 227, 177 229.274, 177 230.661 C 177 231.397, 177.585 232, 178.301 232 C 180.538 232, 184.984 234.444, 184.992 235.679 C 184.996 236.327, 185.616 237.473, 186.368 238.225 C 187.121 238.978, 188.051 240.585, 188.435 241.797 C 188.820 243.008, 189.729 244, 190.456 244 C 191.183 244, 192.058 245.496, 192.401 247.325 C 192.744 249.153, 193.807 251.516, 194.762 252.575 C 197.308 255.395, 198.856 260.556, 199.616 268.750 C 199.985 272.737, 200.650 276, 201.092 276 C 201.535 276, 201.838 279.235, 201.764 283.189 C 201.676 287.943, 202.032 290.511, 202.816 290.772 C 204.384 291.295, 204.529 349.657, 202.963 350.179 C 202.358 350.381, 201.770 355.306, 201.551 362.012 C 201.345 368.331, 200.442 383.175, 199.545 395 C 198.649 406.825, 197.674 420.545, 197.380 425.489 C 197.086 430.432, 196.391 434.758, 195.835 435.102 C 194.392 435.994, 193.350 460.488, 194.321 470.681 C 194.540 472.980, 195.457 475.600, 196.359 476.502 C 197.262 477.405, 198 478.561, 198 479.071 C 198 479.582, 200.250 480, 203 480 C 205.750 480, 208 479.550, 208 479 C 208 478.450, 208.609 478, 209.354 478 C 210.099 478, 211.922 476.875, 213.405 475.500 C 214.889 474.125, 216.464 473, 216.905 473 C 217.347 473, 218.922 471.875, 220.405 470.500 C 221.889 469.125, 223.428 468, 223.824 468 C 224.221 468, 226.110 466.115, 228.023 463.811 C 229.935 461.506, 233.412 457.646, 235.750 455.232 C 238.088 452.817, 240 450.203, 240 449.421 C 240 448.639, 240.631 448, 241.401 448 C 242.172 448, 243.732 446.425, 244.867 444.500 C 246.003 442.575, 247.623 441, 248.466 441 C 249.310 441, 250.009 440.212, 250.019 439.250 C 250.030 438.288, 251.585 435.727, 253.476 433.560 C 255.367 431.394, 257.438 428.356, 258.079 426.810 C 258.719 425.265, 259.756 424, 260.384 424 C 261.477 424, 263.165 421.481, 264.573 417.750 C 264.936 416.788, 265.825 416, 266.549 416 C 267.273 416, 268.119 415.212, 268.430 414.250 C 268.741 413.287, 270.459 410.904, 272.248 408.952 C 274.036 407.001, 276.390 403.738, 277.477 401.702 C 278.565 399.666, 279.979 398, 280.619 398 C 281.259 398, 282.047 396.987, 282.369 395.750 C 282.691 394.512, 284.540 391.787, 286.477 389.694 C 288.415 387.601, 290 385.197, 290 384.351 C 290 383.505, 290.900 382.577, 292 382.290 C 293.100 382.002, 294 380.931, 294 379.909 C 294 378.856, 295.300 377.379, 297 376.500 C 298.650 375.647, 300 374.492, 300 373.934 C 300 372.751, 303.356 367.965, 307.168 363.711 C 308.635 362.074, 309.642 360.231, 309.406 359.616 C 309.170 359.001, 310.332 357.898, 311.989 357.165 C 313.850 356.341, 315 355.089, 315 353.885 C 315 352.814, 315.788 351.639, 316.750 351.275 C 319.101 350.385, 320.607 348.810, 321.362 346.453 C 321.707 345.379, 323.317 343.612, 324.942 342.527 C 326.566 341.442, 328.152 339.530, 328.467 338.277 C 328.781 337.025, 329.632 336, 330.359 336 C 331.085 336, 332.192 334.875, 332.818 333.500 C 333.445 332.125, 334.417 331, 334.979 331 C 335.540 331, 336 330.598, 336 330.106 C 336 328.657, 341.370 323.335, 343.521 322.652 C 344.610 322.306, 346.101 320.668, 346.835 319.012 C 347.568 317.355, 348.805 316, 349.584 316 C 350.363 316, 351.015 315.438, 351.033 314.750 C 351.079 313.016, 354.124 309.547, 356.345 308.696 C 357.360 308.308, 358.415 307.129, 358.690 306.077 C 358.965 305.025, 360.498 303.622, 362.095 302.961 C 363.693 302.299, 365 301.126, 365 300.354 C 365 299.582, 366.101 298.532, 367.448 298.020 C 368.794 297.508, 370.646 295.944, 371.563 294.545 C 372.480 293.145, 373.867 292, 374.646 292 C 375.425 292, 376.358 291.212, 376.719 290.250 C 377.545 288.049, 380.032 286.073, 382.029 286.032 C 382.870 286.014, 384.207 285.100, 385 284 C 385.793 282.900, 387.028 282, 387.746 282 C 388.463 282, 389.481 280.865, 390.008 279.478 C 390.631 277.840, 391.992 276.752, 393.895 276.371 C 395.528 276.044, 397.029 274.995, 397.290 273.999 C 397.552 272.998, 399.109 271.915, 400.833 271.537 C 402.525 271.165, 404.171 270.037, 404.491 269.030 C 404.810 268.023, 406.219 266.911, 407.621 266.559 C 409.023 266.207, 411.100 265.053, 412.237 263.994 C 413.373 262.935, 414.603 262.254, 414.969 262.481 C 415.336 262.708, 416.267 262.017, 417.039 260.946 C 417.810 259.876, 419.194 259, 420.114 259 C 421.034 259, 422.045 258.325, 422.362 257.500 C 422.678 256.675, 423.851 256, 424.969 256 C 426.086 256, 427 255.586, 427 255.079 C 427 254.573, 428.289 253.876, 429.865 253.530 C 431.441 253.184, 433.593 252.096, 434.648 251.113 C 435.704 250.130, 437.902 249.002, 439.533 248.607 C 443.726 247.591, 448 245.647, 448 244.756 C 448 244.340, 448.788 243.993, 449.750 243.985 C 452.189 243.965, 460.359 241.037, 461.037 239.941 C 461.344 239.443, 465.062 238.497, 469.298 237.839 C 473.699 237.155, 477 236.153, 477 235.501 C 477 234.238, 491.572 232, 499.792 232 C 502.961 232, 505.419 231.438, 506.357 230.500 C 507.488 229.369, 510.287 229, 517.729 229 C 528.193 229, 530 228.317, 530 224.359 C 530 223.126, 530.450 221.840, 531 221.500 C 531.550 221.160, 532 219.559, 532 217.941 C 532 216.323, 532.450 215, 533 215 C 533.550 215, 534 213.677, 534 212.059 C 534 210.441, 534.402 208.870, 534.893 208.566 C 535.385 208.262, 536.107 203.961, 536.499 199.007 C 537.029 192.313, 537.570 190, 538.606 190 C 539.721 190, 540 187.594, 540 178 C 540 168, 539.750 166, 538.500 166 C 537.613 166, 536.997 165.081, 536.994 163.750 C 536.990 162.512, 536.315 160.211, 535.494 158.636 C 534.672 157.060, 534 155.200, 534 154.502 C 534 153.804, 533.100 152.998, 532 152.710 C 530.803 152.397, 530 151.346, 530 150.094 C 530 148.942, 529.595 148, 529.100 148 C 528.605 148, 526.625 146.425, 524.700 144.500 C 522.775 142.575, 520.950 141, 520.645 141 C 520.340 141, 518.966 139.875, 517.591 138.500 C 516.216 137.125, 514.395 136, 513.545 136 C 512.695 136, 512 135.550, 512 135 C 512 134.450, 511.325 134, 510.500 134 C 509.675 134, 509 133.578, 509 133.061 C 509 132.545, 506.975 131.819, 504.500 131.448 C 502.025 131.077, 500 130.374, 500 129.886 C 500 129.399, 498.425 129, 496.500 129 C 494.575 129, 493.001 128.662, 493.001 128.250 C 493.002 127.838, 484.114 127.643, 473.251 127.819 C 462.388 127.994, 451.646 127.863, 449.380 127.527 L 445.260 126.916 445.125 120.958 C 445.048 117.544, 445.419 115, 445.995 115 C 446.620 115, 447 109.712, 447 101 C 447 91.296, 446.655 87, 445.875 87 C 445.155 87, 444.969 85.906, 445.358 83.962 C 445.793 81.783, 445.546 80.763, 444.483 80.355 C 443.667 80.042, 443 78.709, 443 77.393 C 443 76.077, 442.590 75, 442.088 75 C 441.586 75, 440.872 73.200, 440.500 71 C 440.107 68.672, 439.267 67, 438.492 67 C 437.759 67, 436.862 65.650, 436.500 64 C 436.138 62.350, 435.435 61, 434.940 61 C 434.444 61, 433.756 59.875, 433.411 58.500 C 433.066 57.125, 432.187 56, 431.459 56 C 430.731 56, 429.824 55.022, 429.445 53.827 C 428.616 51.214, 426.144 48.552, 423.750 47.691 C 422.788 47.346, 422 46.428, 422 45.653 C 422 44.877, 420.751 43.725, 419.225 43.093 C 417.699 42.461, 416.011 40.944, 415.475 39.722 C 414.939 38.500, 413.487 37.356, 412.248 37.180 C 411.009 37.004, 409.563 36.051, 409.033 35.062 C 408.504 34.073, 406.705 32.991, 405.036 32.657 C 403.366 32.323, 402 31.436, 402 30.685 C 402 29.856, 399.837 28.800, 396.500 28 C 393.448 27.268, 391 26.121, 391 25.423 C 391 24.600, 387.888 23.725, 382 22.891 C 376.550 22.120, 373 21.158, 373 20.453 C 373 18.376, 349.672 17.404, 331.500 18.724 M 334.750 49.669 C 331.587 49.906, 329 50.527, 329 51.050 C 329 51.572, 328.127 52, 327.059 52 C 325.991 52, 324.872 52.398, 324.571 52.885 C 324.271 53.371, 321.994 54.074, 319.512 54.446 C 317.031 54.818, 315 55.525, 315 56.016 C 315 56.507, 313.425 57.205, 311.500 57.566 C 309.575 57.927, 308 58.623, 308 59.111 C 308 59.600, 307.100 60, 306 60 C 304.900 60, 304 60.420, 304 60.933 C 304 61.446, 303.145 62.136, 302.101 62.468 C 301.057 62.799, 299.125 64.148, 297.809 65.464 C 296.492 66.781, 294.197 68.164, 292.707 68.537 C 291.218 68.911, 290 69.831, 290 70.583 C 290 71.334, 288.650 72.647, 287 73.500 C 285.350 74.353, 284 75.640, 284 76.360 C 284 77.080, 282.762 78.841, 281.250 80.272 C 277.141 84.161, 276 85.743, 276 87.551 C 276 88.451, 275.132 89.414, 274.071 89.692 C 272.751 90.037, 271.935 91.424, 271.484 94.093 C 271.122 96.236, 270.441 98.227, 269.971 98.518 C 269.500 98.809, 268.808 101.097, 268.432 103.603 C 268.057 106.109, 267.162 108.384, 266.446 108.659 C 265.650 108.965, 264.901 111.758, 264.524 115.830 C 264.184 119.498, 263.461 123.306, 262.919 124.291 C 262.376 125.276, 262.199 126.513, 262.525 127.041 C 262.895 127.639, 290.753 128, 336.559 128 L 410 128 410 122.607 C 410 118.893, 410.438 117.046, 411.408 116.674 C 413.458 115.887, 413.437 90, 411.386 90 C 410.623 90, 410 89.026, 410 87.836 C 410 84.658, 406.823 78, 405.308 78 C 404.588 78, 404 77.086, 404 75.969 C 404 74.851, 403.325 73.678, 402.500 73.362 C 401.675 73.045, 401 71.923, 401 70.868 C 401 69.743, 399.967 68.558, 398.500 68 C 397.125 67.477, 396 66.352, 396 65.500 C 396 64.648, 394.863 63.518, 393.474 62.990 C 392.085 62.462, 389.957 61.106, 388.744 59.976 C 387.532 58.847, 385.518 57.666, 384.270 57.353 C 383.021 57.040, 382 56.410, 382 55.953 C 382 55.496, 379.969 54.818, 377.488 54.446 C 375.006 54.074, 372.729 53.371, 372.429 52.885 C 372.128 52.398, 371.046 52, 370.024 52 C 369.003 52, 368.017 51.566, 367.833 51.034 C 367.465 49.967, 343.813 48.991, 334.750 49.669 M 526.250 93.820 C 525.013 93.995, 524 94.783, 524 95.570 C 524 96.356, 523.550 97, 523 97 C 521.767 97, 521.661 103.673, 522.882 104.427 C 523.999 105.118, 524.158 113, 523.054 113 C 521.406 113, 521.284 118.021, 522.888 119.812 C 525.697 122.948, 529.356 125, 532.139 125 C 533.621 125, 535.096 125.563, 535.417 126.250 C 535.883 127.250, 536.117 127.250, 536.583 126.250 C 536.904 125.563, 537.804 125, 538.583 125 C 539.362 125, 540 124.525, 540 123.945 C 540 121.503, 544.168 114, 545.525 114 C 546.336 114, 547 113.155, 547 112.122 C 547 111.090, 547.675 109.685, 548.500 109 C 549.325 108.315, 550 107.190, 550 106.500 C 550 105.809, 550.990 104.587, 552.200 103.783 C 553.794 102.725, 554.400 101.323, 554.400 98.695 C 554.400 96.699, 554.197 94.872, 553.950 94.634 C 553.387 94.093, 529.308 93.385, 526.250 93.820 M 539 127.865 C 539 128.891, 539.900 130.874, 541 132.273 C 542.100 133.671, 543 135.307, 543 135.908 C 543 136.508, 543.662 137, 544.470 137 C 545.279 137, 546.938 138.350, 548.158 140 C 549.378 141.650, 550.966 143, 551.688 143 C 552.410 143, 553 143.914, 553 145.031 C 553 146.149, 553.647 147.311, 554.437 147.614 C 555.227 147.917, 555.641 148.773, 555.356 149.515 C 554.738 151.126, 559.823 154, 563.293 154 C 565.001 154, 566.224 152.999, 567.570 150.500 C 568.607 148.575, 570.027 147, 570.727 147 C 571.427 147, 572 146.122, 572 145.050 C 572 143.977, 572.622 142.740, 573.382 142.300 C 574.141 141.860, 575.072 139.640, 575.450 137.367 C 576.081 133.567, 575.896 133.062, 573.164 131.117 C 571.529 129.952, 569.334 129, 568.287 129 C 567.239 129, 565.509 128.339, 564.441 127.532 C 562.997 126.439, 559.494 126.055, 550.750 126.032 C 539.938 126.003, 539 126.149, 539 127.865 M 96.500 256 C 96.160 256.550, 93.940 257, 91.566 257 C 84.441 257, 81 258.018, 81 260.125 C 81 261.156, 80.586 262, 80.080 262 C 79.573 262, 78.846 264.925, 78.463 268.500 C 78.027 272.575, 77.311 275, 76.545 275 C 75.771 275, 74.910 278.030, 74.198 283.250 C 72.031 299.151, 70.607 306.506, 69.559 307.213 C 68.977 307.605, 67.934 311.880, 67.242 316.713 C 65.254 330.574, 65.103 331.317, 64.147 331.925 C 63.650 332.241, 62.980 334.300, 62.658 336.500 C 59.926 355.157, 58.112 364.463, 57.144 364.785 C 56.515 364.995, 56 366.678, 56 368.524 C 56 370.371, 55.597 372.131, 55.105 372.435 C 54.612 372.740, 53.893 376.560, 53.507 380.925 C 53.057 386.003, 52.332 389.042, 51.494 389.364 C 50.668 389.681, 49.920 392.672, 49.473 397.448 C 49.082 401.617, 48.412 405.246, 47.983 405.510 C 47.554 405.775, 46.879 409.256, 46.482 413.246 C 46.085 417.236, 45.252 420.821, 44.631 421.213 C 43.499 421.928, 40.833 437.141, 40.956 442.184 C 40.992 443.661, 40.567 445.150, 40.011 445.493 C 39.455 445.837, 39 447.629, 39 449.476 C 39 451.322, 38.471 453.010, 37.824 453.225 C 36.675 453.608, 34.163 467.288, 34.055 473.750 C 34.019 475.842, 33.502 477, 32.601 477 C 31.710 477, 30.996 478.544, 30.637 481.250 C 30.326 483.587, 29.316 491.238, 28.392 498.250 C 27.286 506.638, 26.297 511, 25.500 511 C 24.056 511, 23.012 520.463, 23.018 533.500 C 23.023 544.865, 23.844 550, 25.656 550 C 26.423 550, 27.320 551.350, 27.650 553 C 27.980 554.650, 28.644 556, 29.125 556 C 29.606 556, 30 556.911, 30 558.025 C 30 559.264, 30.969 560.418, 32.500 561 C 33.875 561.523, 35 562.582, 35 563.354 C 35 564.126, 36.350 565.317, 38 566 C 39.650 566.683, 41 567.791, 41 568.461 C 41 569.132, 42.800 570.274, 45 571 C 47.200 571.726, 49 572.877, 49 573.557 C 49 574.302, 51.682 575.262, 55.734 575.967 C 59.438 576.612, 62.771 577.630, 63.141 578.228 C 64.363 580.206, 82.880 580.902, 135.500 580.950 C 214.227 581.022, 275.913 579.937, 275.358 578.492 C 274.844 577.151, 287.176 576.009, 302.404 575.986 C 312.495 575.971, 316 575.352, 316 573.584 C 316 572.934, 317.688 571.792, 319.750 571.047 C 323.860 569.563, 329 565.232, 329 563.253 C 329 562.564, 329.788 561.986, 330.750 561.968 C 332.911 561.929, 336 559.677, 336 558.140 C 336 557.513, 336.873 557, 337.941 557 C 339.009 557, 340.160 556.550, 340.500 556 C 340.840 555.450, 341.940 555, 342.944 555 C 343.948 555, 345.507 553.875, 346.408 552.500 C 347.309 551.125, 348.602 550, 349.283 550 C 349.963 550, 351.081 549.100, 351.768 548 C 352.455 546.900, 353.822 546, 354.805 546 C 355.789 546, 357.698 544.669, 359.047 543.042 C 360.396 541.416, 362.239 540.066, 363.143 540.042 C 364.047 540.019, 365.045 539.325, 365.362 538.500 C 365.678 537.675, 366.848 537, 367.960 537 C 369.073 537, 370.545 536.100, 371.232 535 C 371.919 533.900, 373.218 533, 374.118 533 C 375.018 533, 376.315 532.325, 377 531.500 C 377.685 530.675, 379.315 530, 380.622 530 C 381.930 530, 383 529.550, 383 529 C 383 528.450, 383.675 528, 384.500 528 C 385.325 528, 386 527.550, 386 527 C 386 526.450, 386.649 526, 387.443 526 C 388.237 526, 389.475 525.160, 390.193 524.134 C 390.912 523.108, 392.963 521.947, 394.750 521.555 C 396.538 521.162, 398 520.427, 398 519.921 C 398 519.414, 398.627 519, 399.393 519 C 400.159 519, 401.045 518.325, 401.362 517.500 C 401.698 516.623, 403.197 516, 404.969 516 C 406.636 516, 408 515.550, 408 515 C 408 514.450, 408.675 514, 409.500 514 C 410.325 514, 411 513.397, 411 512.661 C 411 511.924, 412.125 510.808, 413.500 510.182 C 414.875 509.555, 416 508.583, 416 508.021 C 416 507.460, 417.341 507, 418.981 507 C 421.320 507, 422.096 506.466, 422.584 504.521 C 423.110 502.426, 423.978 501.939, 428.188 501.381 C 431.408 500.954, 433.384 500.150, 433.773 499.110 C 434.582 496.949, 437.105 495.071, 439.250 495.032 C 440.212 495.014, 441 494.418, 441 493.707 C 441 492.555, 448.068 490.002, 451.264 489.999 C 452.175 489.998, 452.460 492.696, 452.348 500.249 L 452.195 510.500 452.962 500.500 C 453.894 488.344, 454.918 482, 455.948 482 C 456.373 482, 457.011 479.637, 457.366 476.750 C 458.767 465.374, 461.679 450.815, 462.683 450.175 C 463.265 449.804, 464.014 447.925, 464.347 446 C 464.679 444.075, 465.495 439.238, 466.160 435.250 C 466.946 430.537, 467.830 428, 468.685 428 C 469.408 428, 469.999 426.988, 469.999 425.750 C 469.997 421.608, 474.485 401.513, 475.638 400.500 C 476.265 399.950, 477.067 397.700, 477.421 395.500 C 478.434 389.211, 480.371 381.549, 481.087 381 C 481.694 380.534, 483.419 371.605, 485.939 355.885 C 487.998 343.042, 486.880 334.442, 482.816 331.865 C 479.378 329.685, 456.574 331.754, 454.486 334.435 C 453.928 335.151, 451.996 336.062, 450.192 336.458 C 448.388 336.854, 446.144 337.960, 445.206 338.915 C 444.268 339.871, 441.925 341.271, 440 342.026 C 438.075 342.781, 435.912 344.210, 435.193 345.200 C 434.475 346.190, 433.123 347, 432.190 347 C 431.257 347, 429.219 348.350, 427.662 350 C 426.105 351.650, 424.302 353, 423.656 353 C 423.010 353, 421.919 353.900, 421.232 355 C 420.545 356.100, 419.309 357, 418.485 357 C 417.661 357, 416.009 358.125, 414.813 359.500 C 413.618 360.875, 412.097 362, 411.435 362 C 410.772 362, 409.493 363.125, 408.592 364.500 C 407.691 365.875, 406.512 367, 405.971 367 C 405.431 367, 403.033 368.913, 400.642 371.250 C 398.252 373.587, 394.434 377.075, 392.158 379 C 389.882 380.925, 388.015 383.063, 388.010 383.750 C 388.004 384.438, 387.358 385, 386.573 385 C 385.787 385, 384.316 386.054, 383.304 387.341 C 382.291 388.629, 380.458 390.220, 379.231 390.876 C 378.004 391.533, 377 392.744, 377 393.567 C 377 394.391, 376.212 395.387, 375.250 395.782 C 374.287 396.177, 371.169 398.975, 368.321 402 C 365.472 405.025, 359.086 411.675, 354.129 416.779 C 349.172 421.882, 344.835 426.944, 344.491 428.029 C 344.147 429.113, 343.221 430, 342.433 430 C 341.645 430, 341 430.370, 341 430.823 C 341 431.276, 338.750 434.055, 336 437 C 333.250 439.945, 331 442.949, 331 443.677 C 331 444.405, 330.341 445, 329.535 445 C 328.730 445, 327.534 446.012, 326.878 447.250 C 326.222 448.488, 323.003 452.200, 319.723 455.499 C 316.444 458.799, 313.376 462.512, 312.905 463.749 C 312.435 464.987, 311.389 466, 310.581 466 C 309.774 466, 308.316 467.350, 307.341 469 C 306.366 470.650, 305.063 472, 304.445 472 C 303.827 472, 302.808 473.125, 302.182 474.500 C 301.555 475.875, 300.583 477, 300.021 477 C 299.460 477, 299 477.675, 299 478.500 C 299 479.325, 298.438 480.006, 297.750 480.013 C 297.063 480.021, 292.922 483.846, 288.549 488.513 C 284.176 493.181, 280.126 497.012, 279.549 497.028 C 278.972 497.043, 277.375 498.605, 276 500.500 C 274.625 502.395, 272.951 503.957, 272.280 503.972 C 271.609 503.988, 270.062 505.350, 268.842 507 C 267.622 508.650, 266.037 510, 265.320 510 C 264.604 510, 263.455 510.900, 262.768 512 C 262.081 513.100, 260.985 514, 260.332 514 C 259.679 514, 258.260 515.125, 257.179 516.500 C 256.097 517.875, 254.694 519, 254.061 519 C 253.427 519, 251.889 520.013, 250.642 521.250 C 249.396 522.488, 246.154 524.589, 243.438 525.919 C 240.722 527.250, 238.275 528.662, 238 529.057 C 237.725 529.452, 235.813 530.478, 233.750 531.337 C 231.688 532.195, 230 533.331, 230 533.861 C 230 534.391, 228.213 535.126, 226.029 535.495 C 223.846 535.864, 221.009 536.992, 219.726 538.001 C 218.443 539.010, 214.094 540.519, 210.061 541.353 C 206.029 542.188, 202.250 543.350, 201.665 543.935 C 199.879 545.721, 187.314 545.244, 184.215 543.273 C 182.722 542.323, 181.209 541.134, 180.852 540.630 C 180.496 540.126, 179.259 539.961, 178.102 540.263 C 176.946 540.565, 176 540.405, 176 539.906 C 176 539.408, 175.325 539, 174.500 539 C 173.675 539, 173 538.580, 173 538.067 C 173 537.554, 172.101 536.849, 171.002 536.501 C 169.904 536.152, 168.730 534.772, 168.394 533.433 C 168.058 532.095, 167.157 531, 166.392 531 C 165.626 531, 164.997 530.212, 164.994 529.250 C 164.990 528.288, 164.323 526.225, 163.510 524.668 C 162.698 523.110, 161.736 518.272, 161.373 513.918 C 160.900 508.244, 160.328 506, 159.356 506 C 157.346 506, 157.364 470.458, 159.375 469.686 C 160.431 469.281, 160.920 465.023, 161.481 451.329 C 161.883 441.523, 162.577 433.049, 163.023 432.497 C 163.470 431.945, 164.161 423.508, 164.560 413.747 C 165.092 400.727, 165.614 396, 166.520 396 C 169.541 396, 169.520 308.521, 166.498 307.361 C 165.764 307.079, 164.965 304.022, 164.565 299.963 C 164.190 296.159, 163.512 292.816, 163.057 292.535 C 162.603 292.254, 161.927 290.002, 161.557 287.529 C 161.186 285.057, 160.299 282.689, 159.585 282.267 C 158.872 281.845, 157.466 279.700, 156.460 277.500 C 154.655 273.550, 147.783 266, 145.993 266 C 145.486 266, 144.648 265.211, 144.132 264.247 C 143.616 263.283, 141.013 261.859, 138.347 261.083 C 135.681 260.307, 133.214 259.240, 132.863 258.711 C 132.513 258.182, 129.015 257.519, 125.088 257.238 C 121.162 256.958, 117.709 256.339, 117.416 255.864 C 116.666 254.650, 97.256 254.776, 96.500 256" stroke="none" fill="#2c4be9" fill-rule="evenodd"/></svg>